<svg width="129" height="38" viewBox="0 0 129 38" fill="none" xmlns="http://www.w3.org/2000/svg">
<g id="Kamco logo" clip-path="url(#clip0_0_1205)">
<path id="Vector" d="M2.3632 28.8247V37.4682C2.3632 37.611 2.2456 37.7278 2.1056 37.7278H0.257601C0.1176 37.7278 0 37.611 0 37.4682V28.8247C0 28.6819 0.1176 28.5651 0.257601 28.5651H2.1056C2.2456 28.5651 2.3632 28.6819 2.3632 28.8247ZM129 12.1275C129 14.3547 128.472 16.389 127.398 18.2193C126.325 20.0477 124.869 21.4942 123.012 22.529C121.139 23.5786 119.073 24.1034 116.816 24.1034C114.559 24.1034 112.495 23.5786 110.638 22.529C108.78 21.496 107.324 20.0477 106.268 18.2193C105.194 16.3908 104.668 14.3547 104.668 12.1275C104.668 9.90033 105.196 7.84934 106.268 6.02087C107.324 4.19241 108.78 2.74411 110.638 1.69635C112.495 0.646751 114.559 0.121948 116.816 0.121948C119.073 0.121948 121.138 0.646751 123.012 1.69635C124.869 2.74596 126.325 4.19241 127.398 6.02087C128.472 7.84934 129 9.8855 129 12.1275ZM124.567 12.1275C124.567 9.93371 123.829 8.08856 122.342 6.60873C120.852 5.1289 119.028 4.38156 116.835 4.38156C112.545 4.28513 109.008 7.83265 109.103 12.1256C109.103 14.3046 109.839 16.1331 111.328 17.6129C112.816 19.0909 114.642 19.84 116.835 19.84C119.028 19.84 120.852 19.0927 122.342 17.6129C123.829 16.1331 124.567 14.3046 124.567 12.1256V12.1275ZM100.634 18.9184C99.753 17.9634 98.409 17.726 97.2722 18.4251C95.9917 19.3635 94.5506 19.84 92.9341 19.84C90.7407 19.84 88.917 19.1094 87.4591 17.6296C85.9863 16.1664 85.2508 14.338 85.2508 12.1275C85.2508 9.91702 85.9882 8.07187 87.4591 6.59389C88.9151 5.11406 90.7407 4.38342 92.9341 4.38342C94.4703 4.38342 95.9114 4.84517 97.2405 5.78351C97.7687 6.08578 98.3455 6.19704 98.969 6.08578C99.5925 5.98935 100.138 5.70377 100.571 5.24387L101.536 4.15718C101.597 4.08856 101.599 3.98286 101.536 3.91425C100.559 2.80901 99.3125 1.89663 97.8005 1.20493C96.2157 0.48727 94.6141 0.121948 92.9658 0.121948C90.6922 0.121948 88.6276 0.64675 86.7871 1.67967C84.9298 2.72927 83.4738 4.17572 82.4172 6.00604C81.3439 7.85119 80.8175 9.8855 80.8175 12.1293C80.8175 14.3732 81.3458 16.4075 82.4172 18.236C83.4738 20.0644 84.9298 21.5127 86.7871 22.5457C88.6276 23.5786 90.6922 24.1034 92.9658 24.1034C94.6458 24.1034 96.2791 23.7381 97.8639 23.0056C99.3946 22.299 100.655 21.3718 101.62 20.235C101.679 20.1646 101.676 20.0607 101.614 19.9921L100.634 18.9184ZM75.8055 0.439055H72.6863C71.4058 0.439055 70.814 0.821066 70.1737 2.01346L63.7711 14.0357C63.5639 14.4325 63.4351 14.9573 63.3716 15.6101H63.3231C63.2745 14.9907 63.1476 14.4659 62.9553 14.0357L56.5209 2.01346C55.8806 0.821066 55.2889 0.439055 54.0233 0.439055H50.8836C50.682 0.439055 50.5177 0.602244 50.5177 0.802522V23.4358C50.5177 23.6361 50.682 23.7992 50.8836 23.7992H54.5852C54.7868 23.7992 54.951 23.6361 54.951 23.4358V8.66158C54.9342 8.13677 54.8222 7.51739 54.615 6.83311H54.6636L61.4023 19.8734C61.8185 20.6857 62.4737 21.0825 63.3548 21.0825C64.2359 21.0825 64.8761 20.6857 65.2924 19.8734L72.0311 6.83311H72.0796C71.8556 7.58045 71.7436 8.18499 71.7436 8.66158V23.4376C71.7436 23.6379 71.9079 23.8011 72.1095 23.8011H75.8111C76.0127 23.8011 76.177 23.6379 76.177 23.4376V0.808086C76.177 0.604099 76.0108 0.440909 75.8074 0.440909L75.8055 0.439055ZM25.5491 23.8011H22.6763C22.5438 23.8011 22.4542 23.6657 22.5083 23.5452L32.5771 0.657877C32.635 0.526213 32.7675 0.439055 32.9131 0.439055H36.3553C36.5009 0.439055 36.6334 0.524358 36.6913 0.657877L46.7601 23.5452C46.8124 23.6657 46.7246 23.8011 46.5921 23.8011H43.7044C42.6646 23.8011 41.7518 23.2281 41.3505 22.2267L39.9412 19.0148H29.3273L27.9347 22.2267C27.5017 23.2281 26.6225 23.8011 25.5491 23.8011ZM30.927 15.3412H38.3227L35.3771 8.567C34.9441 7.56561 34.7201 6.61058 34.7201 5.67224H34.5595C34.5427 6.61058 34.3187 7.56376 33.8875 8.567L30.9251 15.3412H30.927ZM4.06748 0.455745H0.365867C0.164267 0.455745 0 0.618934 0 0.819212V23.4358C0 23.6361 0.164267 23.7992 0.365867 23.7992H4.06748C4.26908 23.7992 4.43334 23.6361 4.43334 23.4358V0.819212C4.43334 0.618934 4.26908 0.455745 4.06748 0.455745ZM11.7974 12.8433C11.4763 12.3982 10.8528 11.905 10.2928 11.8252V11.7937C10.8211 11.7455 11.4296 11.3004 11.7656 10.7923L19.1707 0.7302C19.2603 0.609662 19.1726 0.439055 19.0214 0.439055H15.2544C14.4387 0.42422 13.7984 0.789541 13.3168 1.52018L6.78535 10.6644L6.76108 10.6996C6.28508 11.3839 6.32801 12.2777 6.80961 12.9583C6.81335 12.962 6.81521 12.9657 6.81708 12.9694L13.7966 22.6217C14.2614 23.3208 15.1088 23.7974 15.9582 23.7974H19.6411C19.7923 23.7974 19.88 23.6268 19.7886 23.5044L11.7955 12.8396L11.7974 12.8433ZM75.9119 28.4446H67.7676C67.6257 28.4446 67.5081 28.5633 67.5081 28.7061V30.1358C67.5081 30.2768 67.6276 30.3991 67.7676 30.3991H70.6423V37.4627C70.6423 37.6073 70.7617 37.7241 70.9055 37.7241H72.774C72.9159 37.7241 73.0372 37.6054 73.0372 37.4627V30.3991H75.9082C76.05 30.3991 76.1714 30.2768 76.1714 30.1358V28.7061C76.1714 28.5614 76.0482 28.4446 75.9082 28.4446H75.9119ZM56.1382 30.9054C56.1382 30.4826 56.5396 30.0116 57.6652 30.0116C58.6919 30.0116 59.502 30.4566 59.9313 30.6847C60.1423 30.796 60.2804 30.7459 60.3607 30.5716L60.8815 29.446C60.9804 29.2327 60.8591 29.1177 60.7471 29.0584C60.1497 28.7227 59.082 28.2591 57.5345 28.2591C55.1116 28.2591 53.7396 29.4793 53.7396 31.1539C53.7396 34.3991 58.6172 33.5572 58.6172 35.178C58.6172 35.7603 58.0311 36.0218 57.0548 36.0218C55.903 36.0218 55.2441 35.6676 54.4321 35.2652C54.2529 35.1817 54.126 35.2466 54.0532 35.4061L53.51 36.5892C53.4372 36.7487 53.4764 36.8859 53.6406 36.9842C54.5105 37.4626 55.6436 37.878 57.0753 37.878C59.2201 37.878 61.1559 36.962 61.1559 34.8998C61.1559 31.6027 56.1364 32.3166 56.1364 30.9054H56.1382ZM47.1428 35.8382H42.1121V33.8799H46.3774C46.5417 33.8799 46.6425 33.7853 46.6425 33.6221V32.3889C46.6425 32.2258 46.5436 32.1275 46.3774 32.1275H42.1121V30.3324H46.9897C47.154 30.3324 47.2529 30.2378 47.2529 30.0746V28.7098C47.2529 28.5466 47.154 28.4483 46.9897 28.4483H39.9803C39.8347 28.4483 39.7172 28.567 39.7172 28.7098V37.4664C39.7172 37.611 39.8366 37.7278 39.9803 37.7278H47.1446C47.3089 37.7278 47.4078 37.6295 47.4078 37.4664V36.1015C47.4078 35.9383 47.3089 35.8437 47.1446 35.8437L47.1428 35.8382ZM33.3929 28.4446H31.543C31.3825 28.4446 31.263 28.5243 31.2014 28.6727L28.7971 34.4993L26.3462 28.6727C26.2846 28.5169 26.1745 28.4446 26.0139 28.4446H23.9699C23.7553 28.4446 23.6526 28.5781 23.7478 28.7914L27.8134 37.5925C27.8787 37.7371 27.9889 37.8131 28.1531 37.8131H29.2563C29.4169 37.8131 29.5289 37.7371 29.5961 37.5925L33.6206 28.7914C33.7158 28.5781 33.6057 28.4446 33.391 28.4446H33.3929ZM17.711 28.4446H15.9115C15.7248 28.4446 15.6128 28.554 15.6128 28.7376V33.6481L9.83549 28.4872C9.71602 28.3815 9.60589 28.3574 9.46402 28.3574H8.97869C8.79575 28.3574 8.68375 28.4705 8.68375 28.6541V37.433C8.68375 37.6147 8.79388 37.726 8.97869 37.726H10.7819C10.9648 37.726 11.0768 37.6166 11.0768 37.433V32.5336L16.8579 37.6833C16.9736 37.789 17.0875 37.8131 17.2256 37.8131H17.711C17.8976 37.8131 18.0096 37.7 18.0096 37.5164V28.7376C18.0096 28.554 17.8976 28.4446 17.711 28.4446Z" fill="#ECECEC"/>
</g>
<defs>
<clipPath id="clip0_0_1205">
<rect width="129" height="37.7561" fill="white" transform="translate(0 0.121948)"/>
</clipPath>
</defs>
</svg>
